<svg xmlns="http://www.w3.org/2000/svg" xmlns:xlink="http://www.w3.org/1999/xlink" xmlns:s="https://github.com/nturley/netlistsvg" width="464" height="514.5">
  <style>svg {
    stroke:#000;
    fill:none;
  }
  text {
    fill:#000;
    stroke:none;
    font-size:10px;
    font-weight: bold;
    font-family: "Courier New", monospace;
  }
  .nodelabel {
    text-anchor: middle;
  }
  .inputPortLabel {
    text-anchor: end;
  }
  .splitjoinBody {
    fill:#000;
  }</style>
  <g s:type="add" transform="translate(176.33333333333334,149.5)" s:width="25" s:height="25" id="cell_$add$baud_rate_genrator.v:36$3">
    <s:alias val="$add"/>
    <circle r="12.5" cx="12.5" cy="12.5" class="cell_$add$baud_rate_genrator.v:36$3"/>
    <line x1="7.5" x2="17.5" y1="12.5" y2="12.5" class="cell_$add$baud_rate_genrator.v:36$3"/>
    <line x1="12.5" x2="12.5" y1="7.5" y2="17.5" class="cell_$add$baud_rate_genrator.v:36$3"/>
    <g s:x="3" s:y="5" s:pid="A"/>
    <g s:x="3" s:y="20" s:pid="B"/>
    <g s:x="25" s:y="12.5" s:pid="Y"/>
  </g>
  <g s:type="add" transform="translate(176.33333333333334,95)" s:width="25" s:height="25" id="cell_$add$baud_rate_genrator.v:60$6">
    <s:alias val="$add"/>
    <circle r="12.5" cx="12.5" cy="12.5" class="cell_$add$baud_rate_genrator.v:60$6"/>
    <line x1="7.5" x2="17.5" y1="12.5" y2="12.5" class="cell_$add$baud_rate_genrator.v:60$6"/>
    <line x1="12.5" x2="12.5" y1="7.5" y2="17.5" class="cell_$add$baud_rate_genrator.v:60$6"/>
    <g s:x="3" s:y="5" s:pid="A"/>
    <g s:x="3" s:y="20" s:pid="B"/>
    <g s:x="25" s:y="12.5" s:pid="Y"/>
  </g>
  <g s:type="eq" transform="translate(86.33333333333333,237)" s:width="25" s:height="25" id="cell_$eq$baud_rate_genrator.v:28$2">
    <s:alias val="$eq"/>
    <circle r="12.5" cx="12.5" cy="12.5" class="cell_$eq$baud_rate_genrator.v:28$2"/>
    <line x1="7.5" x2="17.5" y1="10" y2="10" class="cell_$eq$baud_rate_genrator.v:28$2"/>
    <line x1="7.5" x2="17.5" y1="15" y2="15" class="cell_$eq$baud_rate_genrator.v:28$2"/>
    <g s:x="3" s:y="5" s:pid="A"/>
    <g s:x="3" s:y="20" s:pid="B"/>
    <g s:x="25" s:y="12.5" s:pid="Y"/>
  </g>
  <g s:type="eq" transform="translate(86.33333333333333,71.5)" s:width="25" s:height="25" id="cell_$eq$baud_rate_genrator.v:52$5">
    <s:alias val="$eq"/>
    <circle r="12.5" cx="12.5" cy="12.5" class="cell_$eq$baud_rate_genrator.v:52$5"/>
    <line x1="7.5" x2="17.5" y1="10" y2="10" class="cell_$eq$baud_rate_genrator.v:52$5"/>
    <line x1="7.5" x2="17.5" y1="15" y2="15" class="cell_$eq$baud_rate_genrator.v:52$5"/>
    <g s:x="3" s:y="5" s:pid="A"/>
    <g s:x="3" s:y="20" s:pid="B"/>
    <g s:x="25" s:y="12.5" s:pid="Y"/>
  </g>
  <g s:type="dff" transform="translate(313,375.5)" s:width="30" s:height="40" id="cell_$procdff$31">
    <s:alias val="$dff"/>
    <s:alias val="$_DFF_"/>
    <s:alias val="$_DFF_P_"/>
    <rect width="30" height="40" x="0" y="0" class="cell_$procdff$31"/>
    <path d="M0,35 L5,30 L0,25" class="cell_$procdff$31"/>
    <g s:x="30" s:y="10" s:pid="Q"/>
    <g s:x="0" s:y="30" s:pid="CLK"/>
    <g s:x="0" s:y="30" s:pid="C"/>
    <g s:x="0" s:y="10" s:pid="D"/>
  </g>
  <g s:type="dff" transform="translate(378,54)" s:width="30" s:height="40" id="cell_$procdff$32">
    <s:alias val="$dff"/>
    <s:alias val="$_DFF_"/>
    <s:alias val="$_DFF_P_"/>
    <rect width="30" height="40" x="0" y="0" class="cell_$procdff$32"/>
    <path d="M0,35 L5,30 L0,25" class="cell_$procdff$32"/>
    <g s:x="30" s:y="10" s:pid="Q"/>
    <g s:x="0" s:y="30" s:pid="CLK"/>
    <g s:x="0" s:y="30" s:pid="C"/>
    <g s:x="0" s:y="10" s:pid="D"/>
  </g>
  <g s:type="dff" transform="translate(313,450.5)" s:width="30" s:height="40" id="cell_$procdff$33">
    <s:alias val="$dff"/>
    <s:alias val="$_DFF_"/>
    <s:alias val="$_DFF_P_"/>
    <rect width="30" height="40" x="0" y="0" class="cell_$procdff$33"/>
    <path d="M0,35 L5,30 L0,25" class="cell_$procdff$33"/>
    <g s:x="30" s:y="10" s:pid="Q"/>
    <g s:x="0" s:y="30" s:pid="CLK"/>
    <g s:x="0" s:y="30" s:pid="C"/>
    <g s:x="0" s:y="10" s:pid="D"/>
  </g>
  <g s:type="dff" transform="translate(378,172)" s:width="30" s:height="40" id="cell_$procdff$34">
    <s:alias val="$dff"/>
    <s:alias val="$_DFF_"/>
    <s:alias val="$_DFF_P_"/>
    <rect width="30" height="40" x="0" y="0" class="cell_$procdff$34"/>
    <path d="M0,35 L5,30 L0,25" class="cell_$procdff$34"/>
    <g s:x="30" s:y="10" s:pid="Q"/>
    <g s:x="0" s:y="30" s:pid="CLK"/>
    <g s:x="0" s:y="30" s:pid="C"/>
    <g s:x="0" s:y="10" s:pid="D"/>
  </g>
  <g s:type="mux" transform="translate(246.33333333333334,365.5)" s:width="20" s:height="40" id="cell_$procmux$11">
    <s:alias val="$pmux"/>
    <s:alias val="$mux"/>
    <s:alias val="$_MUX_"/>
    <path d="M0,0 L20,10 L20,30 L0,40 Z" class="cell_$procmux$11"/>
    <g s:x="0" s:y="10" s:pid="A"/>
    <g s:x="0" s:y="30" s:pid="B"/>
    <g s:x="10" s:y="35" s:pid="S"/>
    <g s:x="20" s:y="20" s:pid="Y"/>
  </g>
  <g s:type="mux" transform="translate(246.33333333333334,34)" s:width="20" s:height="40" id="cell_$procmux$14">
    <s:alias val="$pmux"/>
    <s:alias val="$mux"/>
    <s:alias val="$_MUX_"/>
    <path d="M0,0 L20,10 L20,30 L0,40 Z" class="cell_$procmux$14"/>
    <g s:x="0" s:y="10" s:pid="A"/>
    <g s:x="0" s:y="30" s:pid="B"/>
    <g s:x="10" s:y="35" s:pid="S"/>
    <g s:x="20" s:y="20" s:pid="Y"/>
  </g>
  <g s:type="mux" transform="translate(316.3333333333333,44)" s:width="20" s:height="40" id="cell_$procmux$17">
    <s:alias val="$pmux"/>
    <s:alias val="$mux"/>
    <s:alias val="$_MUX_"/>
    <path d="M0,0 L20,10 L20,30 L0,40 Z" class="cell_$procmux$17"/>
    <g s:x="0" s:y="10" s:pid="A"/>
    <g s:x="0" s:y="30" s:pid="B"/>
    <g s:x="10" s:y="35" s:pid="S"/>
    <g s:x="20" s:y="20" s:pid="Y"/>
  </g>
  <g s:type="mux" transform="translate(176.33333333333334,430.5)" s:width="20" s:height="40" id="cell_$procmux$20">
    <s:alias val="$pmux"/>
    <s:alias val="$mux"/>
    <s:alias val="$_MUX_"/>
    <path d="M0,0 L20,10 L20,30 L0,40 Z" class="cell_$procmux$20"/>
    <g s:x="0" s:y="10" s:pid="A"/>
    <g s:x="0" s:y="30" s:pid="B"/>
    <g s:x="10" s:y="35" s:pid="S"/>
    <g s:x="20" s:y="20" s:pid="Y"/>
  </g>
  <g s:type="mux" transform="translate(246.33333333333334,440.5)" s:width="20" s:height="40" id="cell_$procmux$23">
    <s:alias val="$pmux"/>
    <s:alias val="$mux"/>
    <s:alias val="$_MUX_"/>
    <path d="M0,0 L20,10 L20,30 L0,40 Z" class="cell_$procmux$23"/>
    <g s:x="0" s:y="10" s:pid="A"/>
    <g s:x="0" s:y="30" s:pid="B"/>
    <g s:x="10" s:y="35" s:pid="S"/>
    <g s:x="20" s:y="20" s:pid="Y"/>
  </g>
  <g s:type="mux" transform="translate(246.33333333333334,152)" s:width="20" s:height="40" id="cell_$procmux$26">
    <s:alias val="$pmux"/>
    <s:alias val="$mux"/>
    <s:alias val="$_MUX_"/>
    <path d="M0,0 L20,10 L20,30 L0,40 Z" class="cell_$procmux$26"/>
    <g s:x="0" s:y="10" s:pid="A"/>
    <g s:x="0" s:y="30" s:pid="B"/>
    <g s:x="10" s:y="35" s:pid="S"/>
    <g s:x="20" s:y="20" s:pid="Y"/>
  </g>
  <g s:type="mux" transform="translate(316.3333333333333,162)" s:width="20" s:height="40" id="cell_$procmux$29">
    <s:alias val="$pmux"/>
    <s:alias val="$mux"/>
    <s:alias val="$_MUX_"/>
    <path d="M0,0 L20,10 L20,30 L0,40 Z" class="cell_$procmux$29"/>
    <g s:x="0" s:y="10" s:pid="A"/>
    <g s:x="0" s:y="30" s:pid="B"/>
    <g s:x="10" s:y="35" s:pid="S"/>
    <g s:x="20" s:y="20" s:pid="Y"/>
  </g>
  <g s:type="mux" transform="translate(176.33333333333334,355.5)" s:width="20" s:height="40" id="cell_$procmux$8">
    <s:alias val="$pmux"/>
    <s:alias val="$mux"/>
    <s:alias val="$_MUX_"/>
    <path d="M0,0 L20,10 L20,30 L0,40 Z" class="cell_$procmux$8"/>
    <g s:x="0" s:y="10" s:pid="A"/>
    <g s:x="0" s:y="30" s:pid="B"/>
    <g s:x="10" s:y="35" s:pid="S"/>
    <g s:x="20" s:y="20" s:pid="Y"/>
  </g>
  <g s:type="inputExt" transform="translate(243,280.5)" s:width="30" s:height="20" id="cell_clock">
    <text x="15" y="-4" class="nodelabel cell_clock" s:attribute="ref">clock</text>
    <s:alias val="$_inputExt_"/>
    <path d="M0,0 L0,20 L15,20 L30,10 L15,0 Z" class="cell_clock"/>
    <g s:x="28" s:y="10" s:pid="Y"/>
  </g>
  <g s:type="inputExt" transform="translate(173,300.5)" s:width="30" s:height="20" id="cell_reset">
    <text x="15" y="-4" class="nodelabel cell_reset" s:attribute="ref">reset</text>
    <s:alias val="$_inputExt_"/>
    <path d="M0,0 L0,20 L15,20 L30,10 L15,0 Z" class="cell_reset"/>
    <g s:x="28" s:y="10" s:pid="Y"/>
  </g>
  <g s:type="outputExt" transform="translate(378,450.5)" s:width="30" s:height="20" id="cell_tx_enable">
    <text x="15" y="-4" class="nodelabel cell_tx_enable" s:attribute="ref">tx_enable</text>
    <s:alias val="$_outputExt_"/>
    <path d="M30,0 L30,20 L15,20 L0,10 L15,0 Z" class="cell_tx_enable"/>
    <g s:x="0" s:y="10" s:pid="A"/>
  </g>
  <g s:type="outputExt" transform="translate(378,375.5)" s:width="30" s:height="20" id="cell_rx_enable">
    <text x="15" y="-4" class="nodelabel cell_rx_enable" s:attribute="ref">rx_enable</text>
    <s:alias val="$_outputExt_"/>
    <path d="M30,0 L30,20 L15,20 L0,10 L15,0 Z" class="cell_rx_enable"/>
    <g s:x="0" s:y="10" s:pid="A"/>
  </g>
  <g s:type="constant" transform="translate(83,159.5)" s:width="30" s:height="20" id="cell_1">
    <text x="15" y="-4" class="nodelabel cell_1" s:attribute="ref">1</text>
    <s:alias val="$_constant_"/>
    <rect width="30" height="20" class="cell_1"/>
    <g s:x="30" s:y="10" s:pid="Y"/>
  </g>
  <g s:type="constant" transform="translate(12,247)" s:width="30" s:height="20" id="cell_10100010101111">
    <text x="15" y="-4" class="nodelabel cell_10100010101111" s:attribute="ref">0x28af</text>
    <s:alias val="$_constant_"/>
    <rect width="30" height="20" class="cell_10100010101111"/>
    <g s:x="30" s:y="10" s:pid="Y"/>
  </g>
  <g s:type="constant" transform="translate(12,81.5)" s:width="30" s:height="20" id="cell_1010001010">
    <text x="15" y="-4" class="nodelabel cell_1010001010" s:attribute="ref">0x28a</text>
    <s:alias val="$_constant_"/>
    <rect width="30" height="20" class="cell_1010001010"/>
    <g s:x="30" s:y="10" s:pid="Y"/>
  </g>
  <g s:type="constant" transform="translate(83,405.5)" s:width="30" s:height="20" id="cell_0">
    <text x="15" y="-4" class="nodelabel cell_0" s:attribute="ref">0</text>
    <s:alias val="$_constant_"/>
    <rect width="30" height="20" class="cell_0"/>
    <g s:x="30" s:y="10" s:pid="Y"/>
  </g>
  <g s:type="constant" transform="translate(173,219.5)" s:width="30" s:height="20" id="cell_0000000000000000">
    <text x="15" y="-4" class="nodelabel cell_0000000000000000" s:attribute="ref">0x0</text>
    <s:alias val="$_constant_"/>
    <rect width="30" height="20" class="cell_0000000000000000"/>
    <g s:x="30" s:y="10" s:pid="Y"/>
  </g>
  <line x1="408" x2="452" y1="182" y2="182" class="net_6,7,8,9,10,11,12,13,14,15,16,17,18,19,20,21"/>
  <line x1="452" x2="452" y1="182" y2="23" class="net_6,7,8,9,10,11,12,13,14,15,16,17,18,19,20,21"/>
  <line x1="452" x2="143" y1="23" y2="23" class="net_6,7,8,9,10,11,12,13,14,15,16,17,18,19,20,21"/>
  <line x1="143" x2="143" y1="23" y2="154.5" class="net_6,7,8,9,10,11,12,13,14,15,16,17,18,19,20,21"/>
  <circle cx="452" cy="182" r="2" style="fill:#000" class="net_6,7,8,9,10,11,12,13,14,15,16,17,18,19,20,21"/>
  <line x1="143" x2="179.33333333333334" y1="154.5" y2="154.5" class="net_6,7,8,9,10,11,12,13,14,15,16,17,18,19,20,21"/>
  <line x1="408" x2="452" y1="182" y2="182" class="net_6,7,8,9,10,11,12,13,14,15,16,17,18,19,20,21"/>
  <line x1="452" x2="452" y1="182" y2="501.5" class="net_6,7,8,9,10,11,12,13,14,15,16,17,18,19,20,21"/>
  <line x1="452" x2="58" y1="501.5" y2="501.5" class="net_6,7,8,9,10,11,12,13,14,15,16,17,18,19,20,21"/>
  <line x1="58" x2="58" y1="501.5" y2="242" class="net_6,7,8,9,10,11,12,13,14,15,16,17,18,19,20,21"/>
  <line x1="58" x2="89.33333333333333" y1="242" y2="242" class="net_6,7,8,9,10,11,12,13,14,15,16,17,18,19,20,21"/>
  <line x1="113" x2="179.33333333333334" y1="169.5" y2="169.5" class="net_140"/>
  <line x1="113" x2="163" y1="169.5" y2="169.5" class="net_140"/>
  <line x1="163" x2="163" y1="169.5" y2="115" class="net_140"/>
  <circle cx="163" cy="169.5" r="2" style="fill:#000" class="net_140"/>
  <line x1="163" x2="179.33333333333334" y1="115" y2="115" class="net_140"/>
  <line x1="113" x2="163" y1="169.5" y2="169.5" class="net_140"/>
  <line x1="163" x2="163" y1="169.5" y2="460.5" class="net_140"/>
  <line x1="163" x2="176.33333333333334" y1="460.5" y2="460.5" class="net_140"/>
  <line x1="113" x2="163" y1="169.5" y2="169.5" class="net_140"/>
  <line x1="163" x2="163" y1="169.5" y2="385.5" class="net_140"/>
  <circle cx="163" cy="385.5" r="2" style="fill:#000" class="net_140"/>
  <line x1="163" x2="176.33333333333334" y1="385.5" y2="385.5" class="net_140"/>
  <line x1="408" x2="442" y1="64" y2="64" class="net_38,39,40,41,42,43,44,45,46,47,48,49,50,51,52,53"/>
  <line x1="442" x2="442" y1="64" y2="130" class="net_38,39,40,41,42,43,44,45,46,47,48,49,50,51,52,53"/>
  <line x1="442" x2="153" y1="130" y2="130" class="net_38,39,40,41,42,43,44,45,46,47,48,49,50,51,52,53"/>
  <line x1="153" x2="153" y1="130" y2="100" class="net_38,39,40,41,42,43,44,45,46,47,48,49,50,51,52,53"/>
  <line x1="153" x2="179.33333333333334" y1="100" y2="100" class="net_38,39,40,41,42,43,44,45,46,47,48,49,50,51,52,53"/>
  <line x1="408" x2="442" y1="64" y2="64" class="net_38,39,40,41,42,43,44,45,46,47,48,49,50,51,52,53"/>
  <line x1="442" x2="442" y1="64" y2="12" class="net_38,39,40,41,42,43,44,45,46,47,48,49,50,51,52,53"/>
  <line x1="442" x2="58" y1="12" y2="12" class="net_38,39,40,41,42,43,44,45,46,47,48,49,50,51,52,53"/>
  <line x1="58" x2="58" y1="12" y2="76.5" class="net_38,39,40,41,42,43,44,45,46,47,48,49,50,51,52,53"/>
  <circle cx="442" cy="64" r="2" style="fill:#000" class="net_38,39,40,41,42,43,44,45,46,47,48,49,50,51,52,53"/>
  <line x1="58" x2="89.33333333333333" y1="76.5" y2="76.5" class="net_38,39,40,41,42,43,44,45,46,47,48,49,50,51,52,53"/>
  <line x1="42" x2="89.33333333333333" y1="257" y2="257" class="net_142,143,144,145,146,147,148,149,150,151,152,153,154,155"/>
  <line x1="42" x2="89.33333333333333" y1="91.5" y2="91.5" class="net_156,157,158,159,160,161,162,163,164,165"/>
  <line x1="271" x2="293" y1="290.5" y2="290.5" class="net_2"/>
  <line x1="293" x2="293" y1="290.5" y2="405.5" class="net_2"/>
  <circle cx="293" cy="290.5" r="2" style="fill:#000" class="net_2"/>
  <circle cx="293" cy="405.5" r="2" style="fill:#000" class="net_2"/>
  <line x1="293" x2="313" y1="405.5" y2="405.5" class="net_2"/>
  <line x1="271" x2="293" y1="290.5" y2="290.5" class="net_2"/>
  <line x1="293" x2="293" y1="290.5" y2="94" class="net_2"/>
  <line x1="293" x2="353" y1="94" y2="94" class="net_2"/>
  <line x1="353" x2="353" y1="94" y2="84" class="net_2"/>
  <line x1="353" x2="378" y1="84" y2="84" class="net_2"/>
  <line x1="271" x2="293" y1="290.5" y2="290.5" class="net_2"/>
  <line x1="293" x2="293" y1="290.5" y2="480.5" class="net_2"/>
  <line x1="293" x2="313" y1="480.5" y2="480.5" class="net_2"/>
  <line x1="271" x2="353" y1="290.5" y2="290.5" class="net_2"/>
  <line x1="353" x2="353" y1="290.5" y2="202" class="net_2"/>
  <line x1="353" x2="378" y1="202" y2="202" class="net_2"/>
  <line x1="266.33333333333337" x2="313" y1="385.5" y2="385.5" class="net_72"/>
  <line x1="336.3333333333333" x2="378" y1="64" y2="64" class="net_73,74,75,76,77,78,79,80,81,82,83,84,85,86,87,88"/>
  <line x1="266.33333333333337" x2="313" y1="460.5" y2="460.5" class="net_89"/>
  <line x1="336.3333333333333" x2="378" y1="182" y2="182" class="net_90,91,92,93,94,95,96,97,98,99,100,101,102,103,104,105"/>
  <line x1="196.33333333333334" x2="246.33333333333334" y1="375.5" y2="375.5" class="net_106"/>
  <line x1="113" x2="213" y1="415.5" y2="415.5" class="net_166"/>
  <line x1="213" x2="213" y1="415.5" y2="395.5" class="net_166"/>
  <line x1="213" x2="246.33333333333334" y1="395.5" y2="395.5" class="net_166"/>
  <line x1="113" x2="143" y1="415.5" y2="415.5" class="net_166"/>
  <line x1="143" x2="143" y1="415.5" y2="440.5" class="net_166"/>
  <circle cx="143" cy="415.5" r="2" style="fill:#000" class="net_166"/>
  <circle cx="143" cy="440.5" r="2" style="fill:#000" class="net_166"/>
  <line x1="143" x2="176.33333333333334" y1="440.5" y2="440.5" class="net_166"/>
  <line x1="113" x2="143" y1="415.5" y2="415.5" class="net_166"/>
  <line x1="143" x2="143" y1="415.5" y2="490.5" class="net_166"/>
  <line x1="143" x2="213" y1="490.5" y2="490.5" class="net_166"/>
  <line x1="213" x2="213" y1="490.5" y2="470.5" class="net_166"/>
  <line x1="213" x2="246.33333333333334" y1="470.5" y2="470.5" class="net_166"/>
  <line x1="113" x2="143" y1="415.5" y2="415.5" class="net_166"/>
  <line x1="143" x2="143" y1="415.5" y2="365.5" class="net_166"/>
  <line x1="143" x2="176.33333333333334" y1="365.5" y2="365.5" class="net_166"/>
  <line x1="201" x2="223" y1="310.5" y2="310.5" class="net_3"/>
  <line x1="223" x2="223" y1="310.5" y2="415.5" class="net_3"/>
  <line x1="223" x2="256.33333333333337" y1="415.5" y2="415.5" class="net_3"/>
  <circle cx="223" cy="310.5" r="2" style="fill:#000" class="net_3"/>
  <circle cx="223" cy="415.5" r="2" style="fill:#000" class="net_3"/>
  <line x1="256.33333333333337" x2="256.33333333333337" y1="415.5" y2="400.5" class="net_3"/>
  <line x1="201" x2="223" y1="310.5" y2="310.5" class="net_3"/>
  <line x1="223" x2="223" y1="310.5" y2="141" class="net_3"/>
  <line x1="223" x2="326.3333333333333" y1="141" y2="141" class="net_3"/>
  <line x1="326.3333333333333" x2="326.3333333333333" y1="141" y2="79" class="net_3"/>
  <line x1="201" x2="223" y1="310.5" y2="310.5" class="net_3"/>
  <line x1="223" x2="223" y1="310.5" y2="490.5" class="net_3"/>
  <line x1="223" x2="256.33333333333337" y1="490.5" y2="490.5" class="net_3"/>
  <line x1="256.33333333333337" x2="256.33333333333337" y1="490.5" y2="475.5" class="net_3"/>
  <line x1="201" x2="326.3333333333333" y1="310.5" y2="310.5" class="net_3"/>
  <line x1="326.3333333333333" x2="326.3333333333333" y1="310.5" y2="197" class="net_3"/>
  <line x1="201.33333333333334" x2="213" y1="107.5" y2="107.5" class="net_54,55,56,57,58,59,60,61,62,63,64,65,66,67,68,69"/>
  <line x1="213" x2="213" y1="107.5" y2="44" class="net_54,55,56,57,58,59,60,61,62,63,64,65,66,67,68,69"/>
  <line x1="213" x2="246.33333333333334" y1="44" y2="44" class="net_54,55,56,57,58,59,60,61,62,63,64,65,66,67,68,69"/>
  <line x1="203" x2="233" y1="229.5" y2="229.5" class="net_167,168,169,170,171,172,173,174,175,176,177,178,179,180,181,182"/>
  <line x1="233" x2="233" y1="229.5" y2="64" class="net_167,168,169,170,171,172,173,174,175,176,177,178,179,180,181,182"/>
  <circle cx="233" cy="229.5" r="2" style="fill:#000" class="net_167,168,169,170,171,172,173,174,175,176,177,178,179,180,181,182"/>
  <line x1="233" x2="246.33333333333334" y1="64" y2="64" class="net_167,168,169,170,171,172,173,174,175,176,177,178,179,180,181,182"/>
  <line x1="203" x2="233" y1="229.5" y2="229.5" class="net_167,168,169,170,171,172,173,174,175,176,177,178,179,180,181,182"/>
  <line x1="233" x2="233" y1="229.5" y2="94" class="net_167,168,169,170,171,172,173,174,175,176,177,178,179,180,181,182"/>
  <line x1="233" x2="283" y1="94" y2="94" class="net_167,168,169,170,171,172,173,174,175,176,177,178,179,180,181,182"/>
  <line x1="283" x2="283" y1="94" y2="74" class="net_167,168,169,170,171,172,173,174,175,176,177,178,179,180,181,182"/>
  <circle cx="233" cy="94" r="2" style="fill:#000" class="net_167,168,169,170,171,172,173,174,175,176,177,178,179,180,181,182"/>
  <line x1="283" x2="316.3333333333333" y1="74" y2="74" class="net_167,168,169,170,171,172,173,174,175,176,177,178,179,180,181,182"/>
  <line x1="203" x2="233" y1="229.5" y2="229.5" class="net_167,168,169,170,171,172,173,174,175,176,177,178,179,180,181,182"/>
  <line x1="233" x2="233" y1="229.5" y2="182" class="net_167,168,169,170,171,172,173,174,175,176,177,178,179,180,181,182"/>
  <circle cx="233" cy="182" r="2" style="fill:#000" class="net_167,168,169,170,171,172,173,174,175,176,177,178,179,180,181,182"/>
  <line x1="233" x2="246.33333333333334" y1="182" y2="182" class="net_167,168,169,170,171,172,173,174,175,176,177,178,179,180,181,182"/>
  <line x1="203" x2="233" y1="229.5" y2="229.5" class="net_167,168,169,170,171,172,173,174,175,176,177,178,179,180,181,182"/>
  <line x1="233" x2="233" y1="229.5" y2="259.5" class="net_167,168,169,170,171,172,173,174,175,176,177,178,179,180,181,182"/>
  <line x1="233" x2="303" y1="259.5" y2="259.5" class="net_167,168,169,170,171,172,173,174,175,176,177,178,179,180,181,182"/>
  <line x1="303" x2="303" y1="259.5" y2="192" class="net_167,168,169,170,171,172,173,174,175,176,177,178,179,180,181,182"/>
  <line x1="303" x2="316.3333333333333" y1="192" y2="192" class="net_167,168,169,170,171,172,173,174,175,176,177,178,179,180,181,182"/>
  <line x1="111.33333333333333" x2="256.33333333333337" y1="84" y2="84" class="net_71"/>
  <line x1="256.33333333333337" x2="256.33333333333337" y1="84" y2="69" class="net_71"/>
  <line x1="111.33333333333333" x2="133" y1="84" y2="84" class="net_71"/>
  <line x1="133" x2="133" y1="84" y2="405.5" class="net_71"/>
  <line x1="133" x2="186.33333333333334" y1="405.5" y2="405.5" class="net_71"/>
  <circle cx="133" cy="84" r="2" style="fill:#000" class="net_71"/>
  <line x1="186.33333333333334" x2="186.33333333333334" y1="405.5" y2="390.5" class="net_71"/>
  <line x1="266.33333333333337" x2="316.3333333333333" y1="54" y2="54" class="net_107,108,109,110,111,112,113,114,115,116,117,118,119,120,121,122"/>
  <line x1="111.33333333333333" x2="123" y1="249.5" y2="249.5" class="net_70"/>
  <line x1="123" x2="123" y1="249.5" y2="480.5" class="net_70"/>
  <line x1="123" x2="186.33333333333334" y1="480.5" y2="480.5" class="net_70"/>
  <circle cx="123" cy="249.5" r="2" style="fill:#000" class="net_70"/>
  <line x1="186.33333333333334" x2="186.33333333333334" y1="480.5" y2="465.5" class="net_70"/>
  <line x1="111.33333333333333" x2="256.33333333333337" y1="249.5" y2="249.5" class="net_70"/>
  <line x1="256.33333333333337" x2="256.33333333333337" y1="249.5" y2="187" class="net_70"/>
  <line x1="196.33333333333334" x2="246.33333333333334" y1="450.5" y2="450.5" class="net_123"/>
  <line x1="201.33333333333334" x2="246.33333333333334" y1="162" y2="162" class="net_22,23,24,25,26,27,28,29,30,31,32,33,34,35,36,37"/>
  <line x1="266.33333333333337" x2="316.3333333333333" y1="172" y2="172" class="net_124,125,126,127,128,129,130,131,132,133,134,135,136,137,138,139"/>
  <line x1="343" x2="378" y1="460.5" y2="460.5" class="net_4"/>
  <line x1="343" x2="378" y1="385.5" y2="385.5" class="net_5"/>
</svg>
